<?xml version="1.0" encoding="utf-8"?>
<!-- Generator: Adobe Illustrator 18.1.1, SVG Export Plug-In . SVG Version: 6.00 Build 0)  -->
<svg version="1.1" id="Layer_1" xmlns="http://www.w3.org/2000/svg" xmlns:xlink="http://www.w3.org/1999/xlink" x="0px" y="0px"
	 viewBox="0 0 48 48" enable-background="new 0 0 48 48" xml:space="preserve">
<path d="M48,24c0,3.3-0.6,6.4-1.9,9.4c-1.2,2.9-3,5.4-5.2,7.6c-2.2,2.2-4.8,4-7.6,5.2c-3,1.3-6.1,1.9-9.4,1.9s-6.4-0.7-9.4-1.9
	c-2.9-1.2-5.4-3-7.6-5.2c-1.2-1.1-1.2-3.1,0-4.2L22.8,21H18c-1.7,0-3-1.4-3-3c0-1.7,1.4-3,3-3h12c1.7,0,3,1.4,3,3v12
	c0,1.7-1.4,3-3,3c-1.7,0-3-1.3-3-3v-4.8L13.6,38.7C16.6,40.9,20.2,42,24,42c4.8,0,9.4-1.9,12.8-5.3c3.4-3.4,5.3-8,5.3-12.8
	s-1.9-9.4-5.3-12.8C33.4,7.9,28.8,6,24,6s-9.4,1.9-12.8,5.3S6,19.2,6,24c0,1.6,0.2,3.2,0.6,4.7c0.4,1.6-0.5,3.3-2.1,3.7
	c-1.6,0.4-3.3-0.6-3.7-2.2C0.2,28.2,0,26.1,0,24c0-3.3,0.6-6.4,1.9-9.4c1.2-2.9,3-5.4,5.2-7.6c2.2-2.2,4.8-4,7.6-5.2
	C17.6,0.7,20.8,0,24,0s6.4,0.7,9.4,1.9c2.9,1.2,5.4,3,7.6,5.2c2.2,2.2,4,4.8,5.2,7.6C47.4,17.6,48,20.8,48,24z"/>
</svg>
