<?xml version="1.0" encoding="utf-8"?>
<!-- Generator: Adobe Illustrator 18.1.1, SVG Export Plug-In . SVG Version: 6.00 Build 0)  -->
<svg version="1.1" id="Layer_1" xmlns="http://www.w3.org/2000/svg" xmlns:xlink="http://www.w3.org/1999/xlink" x="0px" y="0px"
	 viewBox="0 0 19 19" enable-background="new 0 0 19 19" xml:space="preserve">
<path d="M2,0C0.9,0,0,0.9,0,2v15c0,1.1,0.9,2,2,2h15c1.1,0,2-0.9,2-2V2c0-1.1-0.9-2-2-2H2z M5,2v3H2V2H5z M9,2v3H6V2H9z M13,2v3h-3
	V2H13z M5,6v3H2V6H5z M9,6v3H6V6H9z M17,6v3h-3V6H17z M5,10v3H2v-3H5z M13,10v3h-3v-3H13z M17,10v3h-3v-3H17z M9,14v3H6v-3H9z
	 M13,14v3h-3v-3H13z M17,14v3h-3v-3H17z"/>
</svg>
