<?xml version="1.0" encoding="utf-8"?>
<!-- Generator: Adobe Illustrator 18.1.1, SVG Export Plug-In . SVG Version: 6.00 Build 0)  -->
<svg version="1.1" id="Layer_1" xmlns="http://www.w3.org/2000/svg" xmlns:xlink="http://www.w3.org/1999/xlink" x="0px" y="0px"
	 viewBox="0 0 48 48" enable-background="new 0 0 48 48" xml:space="preserve">
<path d="M24,0C10.8,0,0,10.8,0,24s10.8,24,24,24s24-10.8,24-24S37.3,0,24,0z M40.6,31c-0.9,2.2-2.2,4.1-3.9,5.8
	c-1.7,1.7-3.6,3-5.8,3.9c-2.2,0.9-4.6,1.4-7,1.4c-2.5,0-4.8-0.5-7-1.4c-2.2-0.9-4.1-2.2-5.8-3.9c-1.7-1.7-3-3.6-3.9-5.8
	C6.5,28.8,6,26.5,6,24c0-2.5,0.5-4.8,1.4-7c0.9-2.2,2.2-4.1,3.9-5.8c1.7-1.7,3.6-3,5.8-3.9C19.2,6.5,21.6,6,24,6
	c2.5,0,4.8,0.5,7,1.4c2.2,0.9,4.1,2.2,5.8,3.9c1.7,1.7,3,3.6,3.9,5.8c0.9,2.2,1.4,4.6,1.4,7C42,26.5,41.5,28.8,40.6,31z M22.5,12
	c0.8,0,1.5-0.7,1.5-1.5C24,9.7,23.4,9,22.5,9C21.7,9,21,9.7,21,10.5C21,11.4,21.7,12,22.5,12z M35.1,12.9c-1.2-1.2-3.1-1.2-4.2,0
	l-5.4,5.3c-0.5-0.1-1-0.2-1.6-0.2c-3.3,0-6,2.7-6,6s2.7,6,6,6s6-2.7,6-6c0-0.5,0-1.1-0.2-1.6l5.3-5.4C36.3,16,36.3,14.1,35.1,12.9z
	 M14.6,17.6c0.6-0.6,0.6-1.6,0-2.2c-0.6-0.6-1.6-0.6-2.1,0c-0.6,0.6-0.6,1.6,0,2.2C13.1,18.2,14,18.2,14.6,17.6z M37.5,21
	c-0.9,0-1.5,0.6-1.5,1.5c0,0.9,0.7,1.5,1.5,1.5c0.9,0,1.5-0.7,1.5-1.5C39,21.7,38.4,21,37.5,21z M10.5,24C9.7,24,9,24.7,9,25.5
	c0,0.9,0.6,1.5,1.5,1.5c0.8,0,1.5-0.7,1.5-1.5C12,24.7,11.4,24,10.5,24z M35.5,30.4c-0.6-0.6-1.5-0.6-2.1,0c-0.6,0.6-0.6,1.6,0,2.2
	c0.6,0.6,1.6,0.6,2.1,0C36.1,32,36.1,31,35.5,30.4z M17.6,33.6c-0.6-0.6-1.6-0.6-2.2,0c-0.6,0.6-0.6,1.6,0,2.1
	c0.6,0.6,1.6,0.6,2.2,0C18.2,35.1,18.2,34.2,17.6,33.6z M25.5,36c-0.9,0-1.5,0.7-1.5,1.5c0,0.9,0.6,1.5,1.5,1.5
	c0.8,0,1.5-0.6,1.5-1.5C27,36.7,26.4,36,25.5,36z"/>
</svg>
