<?xml version="1.0" encoding="utf-8"?>
<!-- Generator: Adobe Illustrator 18.1.1, SVG Export Plug-In . SVG Version: 6.00 Build 0)  -->
<svg version="1.1" id="Layer_1" xmlns="http://www.w3.org/2000/svg" xmlns:xlink="http://www.w3.org/1999/xlink" x="0px" y="0px"
	 viewBox="0 0 1000 1000" enable-background="new 0 0 1000 1000" xml:space="preserve">
<path fill="#9552EF" d="M1000,500c0,68.8-12.5,133.3-39.6,195.8c-25,60.4-62.5,112.5-108.3,158.3c-45.8,45.8-100,83.3-158.3,108.3
	c-62.5,27.1-127.1,39.6-195.8,39.6s-133.3-14.6-195.8-39.6c-60.4-25-112.5-62.5-158.3-108.3c-25-22.9-25-64.6,0-87.5L475,437.5H375
	c-35.4,0-62.5-29.2-62.5-62.5c0-35.4,29.2-62.5,62.5-62.5h250c35.4,0,62.5,29.2,62.5,62.5v250c0,35.4-29.2,62.5-62.5,62.5
	c-35.4,0-62.5-27.1-62.5-62.5V525L283.3,806.3C345.8,852.1,420.8,875,500,875c100,0,195.8-39.6,266.7-110.4s110.4-166.7,110.4-266.7
	s-39.6-195.8-110.4-266.7C695.8,164.6,600,125,500,125s-195.8,39.6-266.7,110.4S125,400,125,500c0,33.3,4.2,66.7,12.5,97.9
	c8.3,33.3-10.4,68.8-43.8,77.1S25,662.5,16.7,629.2C4.2,587.5,0,543.8,0,500c0-68.7,12.5-133.3,39.6-195.8
	c25-60.4,62.5-112.5,108.3-158.3s100-83.3,158.3-108.3C366.7,14.6,433.3,0,500,0s133.3,14.6,195.8,39.6
	c60.4,25,112.5,62.5,158.3,108.3c45.8,45.8,83.3,100,108.3,158.3C987.5,366.7,1000,433.3,1000,500z"/>
</svg>
