<?xml version="1.0" encoding="utf-8"?>
<!-- Generator: Adobe Illustrator 18.1.1, SVG Export Plug-In . SVG Version: 6.00 Build 0)  -->
<svg version="1.1" id="Layer_1" xmlns="http://www.w3.org/2000/svg" xmlns:xlink="http://www.w3.org/1999/xlink" x="0px" y="0px"
	 viewBox="0 0 16 13" enable-background="new 0 0 16 13" xml:space="preserve">
<path fill="#FFFFFF" d="M16,7.2c0,1.3-0.2,2.3-0.6,3.1c-0.5,0.9-1.4,1.6-2.4,2c-0.9,0.4-2.3,0.6-3.3,0.6c-0.5,0-1,0.1-1.6,0.1
	c-1,0-1.7,0-2.8-0.2c-1.1-0.1-1.9-0.4-2.8-0.7c-0.9-0.4-1.6-1-2-1.8C0.2,9.5,0,8.5,0,7.2c0-1.4,0.4-2.7,1.3-3.6C1.1,3.1,1,2.5,1,2
	c0-0.7,0.2-1.4,0.5-2c1.4,0,2.3,0.5,3.6,1.5c0.9-0.2,1.9-0.3,3-0.3c0.9,0,1.8,0.1,2.7,0.3c1.3-1,2.2-1.5,3.6-1.5
	c0.3,0.6,0.5,1.3,0.5,2c0,0.5-0.1,1-0.2,1.5C15.6,4.5,16,5.8,16,7.2z M13.8,8.9c0-1.5-0.9-2.7-2.5-2.7c-0.2,0-0.9,0.1-1.9,0.2
	C9,6.5,8.5,6.5,8,6.5s-1,0-1.5-0.1c-1-0.1-1.6-0.2-1.9-0.2c-1.5,0-2.5,1.2-2.5,2.7c0,1.1,0.5,1.9,1.1,2.4C3.9,11.7,4.9,12,5.8,12
	c0.4,0.1,0.9,0.1,1.4,0.1h1.6c1,0,1.8-0.1,2.8-0.3c0.9-0.3,1.5-0.7,1.9-1.5C13.7,9.9,13.8,9.4,13.8,8.9z M6,8.1
	c0.1,0.3,0.1,0.5,0.1,0.8c0,0.5-0.1,1-0.5,1.4c-0.2,0.2-0.4,0.3-0.7,0.3c-0.5,0-0.9-0.5-1.1-1C3.7,9.4,3.7,9.1,3.7,8.9
	c0-0.5,0.1-1,0.5-1.5c0.2-0.2,0.4-0.3,0.7-0.3C5.5,7.1,5.9,7.6,6,8.1z M12.2,8.1c0.1,0.3,0.1,0.5,0.1,0.8c0,0.5-0.1,1-0.5,1.4
	c-0.2,0.2-0.4,0.3-0.7,0.3c-0.5,0-0.9-0.5-1.1-1C9.9,9.4,9.8,9.1,9.8,8.9c0-0.5,0.1-1,0.5-1.5c0.2-0.2,0.4-0.3,0.7-0.3
	C11.6,7.1,12,7.6,12.2,8.1z"/>
</svg>
