<?xml version="1.0" encoding="utf-8"?>
<!-- Generator: Adobe Illustrator 18.1.1, SVG Export Plug-In . SVG Version: 6.00 Build 0)  -->
<svg version="1.1" id="Layer_1" xmlns="http://www.w3.org/2000/svg" xmlns:xlink="http://www.w3.org/1999/xlink" x="0px" y="0px"
	 viewBox="0 0 1000 1000" enable-background="new 0 0 1000 1000" xml:space="preserve">
<path fill="#9552EF" d="M500,0C225,0,0,225,0,500s225,500,500,500s500-225,500-500S777.1,0,500,0z M845.8,645.8
	c-18.8,45.8-45.8,85.4-81.2,120.8s-75,62.5-120.8,81.2c-45.8,18.8-95.8,29.2-145.8,29.2c-52.1,0-100-10.4-145.8-29.2
	c-45.8-18.8-85.4-45.8-120.8-81.2s-62.5-75-81.2-120.8c-14.6-45.8-25-93.8-25-145.8c0-52.1,10.4-100,29.2-145.8
	s45.8-85.4,81.2-120.8s75-62.5,120.8-81.3C400,135.4,450,125,500,125c52.1,0,100,10.4,145.8,29.2c45.8,18.8,85.4,45.8,120.8,81.2
	s62.5,75,81.2,120.8c18.8,45.8,29.2,95.8,29.2,145.8C875,552.1,864.6,600,845.8,645.8z M468.8,250c16.7,0,31.2-14.6,31.2-31.2
	s-12.5-31.2-31.2-31.2c-16.7,0-31.2,14.6-31.2,31.2C437.5,237.5,452.1,250,468.8,250z M731.2,268.8c-25-25-64.6-25-87.5,0
	L531.2,379.2c-10.4-2.1-20.8-4.2-33.3-4.2c-68.7,0-125,56.3-125,125s56.3,125,125,125s125-56.2,125-125c0-10.4,0-22.9-4.2-33.3
	l110.4-112.5C756.2,333.3,756.2,293.8,731.2,268.8z M304.2,366.7c12.5-12.5,12.5-33.3,0-45.8s-33.3-12.5-43.8,0
	c-12.5,12.5-12.5,33.3,0,45.8C272.9,379.2,291.7,379.2,304.2,366.7z M781.2,437.5c-18.8,0-31.2,12.5-31.2,31.2
	c0,18.8,14.6,31.2,31.2,31.2c18.8,0,31.2-14.6,31.2-31.2C812.5,452.1,800,437.5,781.2,437.5z M218.8,500
	c-16.7,0-31.2,14.6-31.2,31.2c0,18.8,12.5,31.2,31.2,31.2c16.7,0,31.2-14.6,31.2-31.2C250,514.6,237.5,500,218.8,500z M739.6,633.3
	c-12.5-12.5-31.2-12.5-43.8,0c-12.5,12.5-12.5,33.3,0,45.8c12.5,12.5,33.3,12.5,43.8,0C752.1,666.7,752.1,645.8,739.6,633.3z
	 M366.7,700c-12.5-12.5-33.3-12.5-45.8,0c-12.5,12.5-12.5,33.3,0,43.7c12.5,12.5,33.3,12.5,45.8,0
	C379.2,731.2,379.2,712.5,366.7,700z M531.2,750c-18.8,0-31.2,14.6-31.2,31.2c0,18.8,12.5,31.2,31.2,31.2
	c16.7,0,31.2-12.5,31.2-31.2C562.5,764.6,550,750,531.2,750z"/>
</svg>
